[Header]
FileType HTR
DataType HTRS
FileVersion 1
NumSegments 64
NumFrames 4
DataFrameRate 24
EulerRotationOrder ZYX
CalibrationUnits mm
RotationUnits Degrees
GlobalAxisofGravity Y
BoneLengthAxis Y
ScaleFactor 1.0
[SegmentNames&Hierarchy]
Hips	GLOBAL
Spine	Hips
Spine1	Spine
Spine2	Spine1
Neck	Spine2
Head	Neck
LeftEye	Head
RightEye	Head
LeftShoulder	Spine2
LeftArm	LeftShoulder
LeftForeArm	LeftArm
LeftHand	LeftForeArm
LeftHandThumb1	LeftHand
LeftHandThumb2	LeftHandThumb1
LeftHandThumb3	LeftHandThumb2
LeftHandThumb4	LeftHandThumb3
LeftHandIndex1	LeftHand
LeftHandIndex2	LeftHandIndex1
LeftHandIndex3	LeftHandIndex2
LeftHandIndex4	LeftHandIndex3
LeftHandMiddle1	LeftHand
LeftHandMiddle2	LeftHandMiddle1
LeftHandMiddle3	LeftHandMiddle2
LeftHandMiddle4	LeftHandMiddle3
LeftHandRing1	LeftHand
LeftHandRing2	LeftHandRing1
LeftHandRing3	LeftHandRing2
LeftHandRing4	LeftHandRing3
LeftHandPinky1	LeftHand
LeftHandPinky2	LeftHandPinky1
LeftHandPinky3	LeftHandPinky2
LeftHandPinky4	LeftHandPinky3
RightShoulder	Spine2
RightArm	RightShoulder
RightForeArm	RightArm
RightHand	RightForeArm
RightHandPinky1	RightHand
RightHandPinky2	RightHandPinky1
RightHandPinky3	RightHandPinky2
RightHandPinky4	RightHandPinky3
RightHandRing1	RightHand
RightHandRing2	RightHandRing1
RightHandRing3	RightHandRing2
RightHandRing4	RightHandRing3
RightHandMiddle1	RightHand
RightHandMiddle2	RightHandMiddle1
RightHandMiddle3	RightHandMiddle2
RightHandMiddle4	RightHandMiddle3
RightHandIndex1	RightHand
RightHandIndex2	RightHandIndex1
RightHandIndex3	RightHandIndex2
RightHandIndex4	RightHandIndex3
RightHandThumb1	RightHand
RightHandThumb2	RightHandThumb1
RightHandThumb3	RightHandThumb2
RightHandThumb4	RightHandThumb3
LeftUpLeg	Hips
LeftLeg	LeftUpLeg
LeftFoot	LeftLeg
LeftToeBase	LeftFoot
RightUpLeg	Hips
RightLeg	RightUpLeg
RightFoot	RightLeg
RightToeBase	RightFoot
[BasePosition]
Hips	0	0	0	0	0	0	1
Spine	0	0	0	0	0	0	1
Spine1	0	0	0	0	0	0	1
Spine2	0	0	0	0	0	0	1
Neck	0	0	0	0	0	0	1
Head	0	0	0	0	0	0	1
LeftEye	0	0	0	0	0	0	1
RightEye	0	0	0	0	0	0	1
LeftShoulder	0	0	0	0	0	0	1
LeftArm	0	0	0	0	0	0	1
LeftForeArm	0	0	0	0	0	0	1
LeftHand	0	0	0	0	0	0	1
LeftHandThumb1	0	0	0	0	0	0	1
LeftHandThumb2	0	0	0	0	0	0	1
LeftHandThumb3	0	0	0	0	0	0	1
LeftHandThumb4	0	0	0	0	0	0	1
LeftHandIndex1	0	0	0	0	0	0	1
LeftHandIndex2	0	0	0	0	0	0	1
LeftHandIndex3	0	0	0	0	0	0	1
LeftHandIndex4	0	0	0	0	0	0	1
LeftHandMiddle1	0	0	0	0	0	0	1
LeftHandMiddle2	0	0	0	0	0	0	1
LeftHandMiddle3	0	0	0	0	0	0	1
LeftHandMiddle4	0	0	0	0	0	0	1
LeftHandRing1	0	0	0	0	0	0	1
LeftHandRing2	0	0	0	0	0	0	1
LeftHandRing3	0	0	0	0	0	0	1
LeftHandRing4	0	0	0	0	0	0	1
LeftHandPinky1	0	0	0	0	0	0	1
LeftHandPinky2	0	0	0	0	0	0	1
LeftHandPinky3	0	0	0	0	0	0	1
LeftHandPinky4	0	0	0	0	0	0	1
RightShoulder	0	0	0	0	0	0	1
RightArm	0	0	0	0	0	0	1
RightForeArm	0	0	0	0	0	0	1
RightHand	0	0	0	0	0	0	1
RightHandPinky1	0	0	0	0	0	0	1
RightHandPinky2	0	0	0	0	0	0	1
RightHandPinky3	0	0	0	0	0	0	1
RightHandPinky4	0	0	0	0	0	0	1
RightHandRing1	0	0	0	0	0	0	1
RightHandRing2	0	0	0	0	0	0	1
RightHandRing3	0	0	0	0	0	0	1
RightHandRing4	0	0	0	0	0	0	1
RightHandMiddle1	0	0	0	0	0	0	1
RightHandMiddle2	0	0	0	0	0	0	1
RightHandMiddle3	0	0	0	0	0	0	1
RightHandMiddle4	0	0	0	0	0	0	1
RightHandIndex1	0	0	0	0	0	0	1
RightHandIndex2	0	0	0	0	0	0	1
RightHandIndex3	0	0	0	0	0	0	1
RightHandIndex4	0	0	0	0	0	0	1
RightHandThumb1	0	0	0	0	0	0	1
RightHandThumb2	0	0	0	0	0	0	1
RightHandThumb3	0	0	0	0	0	0	1
RightHandThumb4	0	0	0	0	0	0	1
LeftUpLeg	0	0	0	0	0	0	1
LeftLeg	0	0	0	0	0	0	1
LeftFoot	0	0	0	0	0	0	1
LeftToeBase	0	0	0	0	0	0	1
RightUpLeg	0	0	0	0	0	0	1
RightLeg	0	0	0	0	0	0	1
RightFoot	0	0	0	0	0	0	1
RightToeBase	0	0	0	0	0	0	1
[Hips]
126	-4.834228516	1034.466553	23.3903923	-3.493352175	-5.560856819	-2.873308659	1.0
127	-4.847322464	1034.459595	23.50745773	-3.510194063	-5.568918705	-2.875728846	1.0
128	-4.861476898	1034.450562	23.62259674	-3.528338432	-5.576340675	-2.878490448	1.0
129	-4.87647438	1034.438721	23.73398018	-3.547426462	-5.583217621	-2.881761312	1.0
[Spine]
126	0	101.8159943	1.315000057	3.385603189	1.504108071	2.935222626	1.0
127	0	101.8159943	1.315000057	3.405965567	1.509099364	2.94144702	1.0
128	0	101.8159943	1.315000057	3.426569939	1.514644146	2.947598696	1.0
129	0	101.8159943	1.315000057	3.447832346	1.521031976	2.953819752	1.0
[Spine1]
126	0	100.8349991	-10.00800037	1.143069029	0.3604511023	1.617562532	1.0
127	0	100.8349991	-10.00800037	1.147531271	0.362688601	1.619137049	1.0
128	0	100.8349991	-10.00800037	1.152080297	0.3651588559	1.620653272	1.0
129	0	100.8349991	-10.00800037	1.156853199	0.367980361	1.622159243	1.0
[Spine2]
126	0	91	-13.73399925	1.117828608	0.3833213747	1.620371819	1.0
127	0	91	-13.73399925	1.12230742	0.3855493963	1.621889114	1.0
128	0	91	-13.73399925	1.126873374	0.3880087137	1.623347282	1.0
129	0	91	-13.73399925	1.13166368	0.3908183277	1.624793291	1.0
[Neck]
126	0	166.7169952	-25.16200066	5.621724129	-0.1959558725	0.5099026561	1.0
127	0	166.7169952	-25.16200066	5.648667812	-0.1938432604	0.5007587671	1.0
128	0	166.7169952	-25.16200066	5.675507069	-0.1917268336	0.491594106	1.0
129	0	166.7169952	-25.16200066	5.702137947	-0.1897304803	0.4823085666	1.0
[Head]
126	0	96.17900085	16.84999847	-8.014472961	1.147613525	-0.1185415015	1.0
127	0	96.17900085	16.84999847	-8.026290894	1.146798491	-0.1162059605	1.0
128	0	96.17900085	16.84999847	-8.038739204	1.146422386	-0.1145778894	1.0
129	0	96.17900085	16.84999847	-8.053310394	1.145860672	-0.1134209856	1.0
[LeftEye]
126	30.6760006	64.09500122	92.83599854	0	0	0	1.0
127	30.6760006	64.09500122	92.83599854	0	0	0	1.0
128	30.6760006	64.09500122	92.83599854	0	0	0	1.0
129	30.6760006	64.09500122	92.83599854	0	0	0	1.0
[RightEye]
126	-30.6760006	64.09500122	92.83499908	0	0	0	1.0
127	-30.6760006	64.09500122	92.83499908	0	0	0	1.0
128	-30.6760006	64.09500122	92.83499908	0	0	0	1.0
129	-30.6760006	64.09500122	92.83499908	0	0	0	1.0
[LeftShoulder]
126	45.70400238	109.4599991	-26.28000069	4.82930088	-16.37644958	-12.9473753	1.0
127	45.70400238	109.4599991	-26.28000069	4.834672451	-16.40096092	-12.96791935	1.0
128	45.70400238	109.4599991	-26.28000069	4.839920521	-16.42558098	-12.9877224	1.0
129	45.70400238	109.4599991	-26.28000069	4.845217228	-16.45041466	-13.00769997	1.0
[LeftArm]
126	105.923996	-5.24600029	-22.32099915	20.0555687	-3.623412132	-71.44420624	1.0
127	105.923996	-5.24600029	-22.32099915	20.05213737	-3.653240919	-71.42204285	1.0
128	105.923996	-5.24600029	-22.32099915	20.04927444	-3.683045864	-71.40026855	1.0
129	105.923996	-5.24600029	-22.32099915	20.04654503	-3.713125706	-71.37849426	1.0
[LeftForeArm]
126	278.414978	-0.0009999999311	0	-2.085934739e-06	-1.507356048	-0.000208320198	1.0
127	278.414978	-0.0009999999311	0	-4.257066166e-07	-1.506365299	-0.0002099585399	1.0
128	278.414978	-0.0009999999311	0	1.193986009e-06	-1.505375743	-0.0002120335703	1.0
129	278.414978	-0.0009999999311	0	2.555147603e-06	-1.504438281	-0.0002135756367	1.0
[LeftHand]
126	283.2879944	0	0	-32.56308746	-4.440040112	-4.295694351	1.0
127	283.2879944	0	0	-32.58260345	-4.442804337	-4.295279026	1.0
128	283.2879944	0	0	-32.60106277	-4.445851326	-4.29655838	1.0
129	283.2879944	0	0	-32.62011719	-4.44961834	-4.297981262	1.0
[LeftHandThumb1]
126	24.6609993	-15.75	26.8239994	-0.4889889657	2.201390743	4.818541527	1.0
127	24.6609993	-15.75	26.8239994	-0.4889889657	2.201390743	4.818541527	1.0
128	24.6609993	-15.75	26.8239994	-0.4889889657	2.201390743	4.818541527	1.0
129	24.6609993	-15.75	26.8239994	-0.4889889657	2.201390743	4.818541527	1.0
[LeftHandThumb2]
126	32.29800034	-18.64699936	18.64699936	19.88581276	19.96446037	23.26738167	1.0
127	32.29800034	-18.64699936	18.64699936	19.88581276	19.96446037	23.26738167	1.0
128	32.29800034	-18.64699936	18.64699936	19.88581276	19.96446037	23.26738167	1.0
129	32.29800034	-18.64699936	18.64699936	19.88581276	19.96446037	23.26738167	1.0
[LeftHandThumb3]
126	26.52600098	-15.31499958	15.31499958	-13.14535904	5.551738262	7.967928886	1.0
127	26.52600098	-15.31499958	15.31499958	-13.14535904	5.551738262	7.967928886	1.0
128	26.52600098	-15.31499958	15.31499958	-13.14535904	5.551738262	7.967928886	1.0
129	26.52600098	-15.31499958	15.31499958	-13.14535904	5.551738262	7.967928886	1.0
[LeftHandThumb4]
126	19.54599953	-11.28499985	11.28499985	0	0	0	1.0
127	19.54599953	-11.28499985	11.28499985	0	0	0	1.0
128	19.54599953	-11.28499985	11.28499985	0	0	0	1.0
129	19.54599953	-11.28499985	11.28499985	0	0	0	1.0
[LeftHandIndex1]
126	91.09299469	-5.170999527	22.60099792	0.1480516791	-0.9618676901	-7.594518185	1.0
127	91.09299469	-5.170999527	22.60099792	0.1480516791	-0.9618676901	-7.594518185	1.0
128	91.09299469	-5.170999527	22.60099792	0.1480516791	-0.9618676901	-7.594518185	1.0
129	91.09299469	-5.170999527	22.60099792	0.1480516791	-0.9618676901	-7.594518185	1.0
[LeftHandIndex2]
126	36.76399994	0	0	-0.2667043209	1.745171905	-17.37646866	1.0
127	36.76399994	0	0	-0.2667043209	1.745171905	-17.37646866	1.0
128	36.76399994	0	0	-0.2667043209	1.745171905	-17.37646866	1.0
129	36.76399994	0	0	-0.2667043209	1.745171905	-17.37646866	1.0
[LeftHandIndex3]
126	28.83100128	0	0	-0.05742863193	0.817338407	-8.038370132	1.0
127	28.83100128	0	0	-0.05742863193	0.817338407	-8.038370132	1.0
128	28.83100128	0	0	-0.05742863193	0.817338407	-8.038370132	1.0
129	28.83100128	0	0	-0.05742863193	0.817338407	-8.038370132	1.0
[LeftHandIndex4]
126	23.92700005	0	0	0	0	0	1.0
127	23.92700005	0	0	0	0	0	1.0
128	23.92700005	0	0	0	0	0	1.0
129	23.92700005	0	0	0	0	0	1.0
[LeftHandMiddle1]
126	95.33399963	0	0	-0.7942916155	2.538622379	-15.71737862	1.0
127	95.33399963	0	0	-0.7942916155	2.538622379	-15.71737862	1.0
128	95.33399963	0	0	-0.7942916155	2.538622379	-15.71737862	1.0
129	95.33399963	0	0	-0.7942916155	2.538622379	-15.71737862	1.0
[LeftHandMiddle2]
126	36.98199844	0	0	-0.267610997	1.748071074	-17.40625954	1.0
127	36.98199844	0	0	-0.267610997	1.748071074	-17.40625954	1.0
128	36.98199844	0	0	-0.267610997	1.748071074	-17.40625954	1.0
129	36.98199844	0	0	-0.267610997	1.748071074	-17.40625954	1.0
[LeftHandMiddle3]
126	29.50900078	0	0	-0.2992140949	1.84580946	-18.41413307	1.0
127	29.50900078	0	0	-0.2992140949	1.84580946	-18.41413307	1.0
128	29.50900078	0	0	-0.2992140949	1.84580946	-18.41413307	1.0
129	29.50900078	0	0	-0.2992140949	1.84580946	-18.41413307	1.0
[LeftHandMiddle4]
126	28.3390007	0	0	0	0	0	1.0
127	28.3390007	0	0	0	0	0	1.0
128	28.3390007	0	0	0	0	0	1.0
129	28.3390007	0	0	0	0	0	1.0
[LeftHandRing1]
126	91.04499817	-0.4390000105	-18.65100098	-1.184956431	3.436642885	-21.16632462	1.0
127	91.04499817	-0.4390000105	-18.65100098	-1.184956431	3.436642885	-21.16632462	1.0
128	91.04499817	-0.4390000105	-18.65100098	-1.184956431	3.436642885	-21.16632462	1.0
129	91.04499817	-0.4390000105	-18.65100098	-1.184956431	3.436642885	-21.16632462	1.0
[LeftHandRing2]
126	31.54000092	0	0	-0.3849357069	2.085560799	-20.91281319	1.0
127	31.54000092	0	0	-0.3849357069	2.085560799	-20.91281319	1.0
128	31.54000092	0	0	-0.3849357069	2.085560799	-20.91281319	1.0
129	31.54000092	0	0	-0.3849357069	2.085560799	-20.91281319	1.0
[LeftHandRing3]
126	29.37700081	0	0	-0.2818065584	1.792707562	-17.86576271	1.0
127	29.37700081	0	0	-0.2818065584	1.792707562	-17.86576271	1.0
128	29.37700081	0	0	-0.2818065584	1.792707562	-17.86576271	1.0
129	29.37700081	0	0	-0.2818065584	1.792707562	-17.86576271	1.0
[LeftHandRing4]
126	26.47500038	0	0	0	0	0	1.0
127	26.47500038	0	0	0	0	0	1.0
128	26.47500038	0	0	0	0	0	1.0
129	26.47500038	0	0	0	0	0	1.0
[LeftHandPinky1]
126	80.77799988	-4.887000084	-38.06099701	-1.708467126	5.355370045	-27.1653862	1.0
127	80.77799988	-4.887000084	-38.06099701	-1.708467126	5.355370045	-27.1653862	1.0
128	80.77799988	-4.887000084	-38.06099701	-1.708467126	5.355370045	-27.1653862	1.0
129	80.77799988	-4.887000084	-38.06099701	-1.708467126	5.355370045	-27.1653862	1.0
[LeftHandPinky2]
126	36	0	0	-0.2676221728	1.748113751	-17.40663528	1.0
127	36	0	0	-0.2676221728	1.748113751	-17.40663528	1.0
128	36	0	0	-0.2676221728	1.748113751	-17.40663528	1.0
129	36	0	0	-0.2676221728	1.748113751	-17.40663528	1.0
[LeftHandPinky3]
126	21.14200211	0	0	-0.2408525199	1.660349369	-16.50663185	1.0
127	21.14200211	0	0	-0.2408525199	1.660349369	-16.50663185	1.0
128	21.14200211	0	0	-0.2408525199	1.660349369	-16.50663185	1.0
129	21.14200211	0	0	-0.2408525199	1.660349369	-16.50663185	1.0
[LeftHandPinky4]
126	19.75699997	0	0	0	0	0	1.0
127	19.75699997	0	0	0	0	0	1.0
128	19.75699997	0	0	0	0	0	1.0
129	19.75699997	0	0	0	0	0	1.0
[RightShoulder]
126	-45.70000076	109.4620056	-26.28000069	5.255908012	14.5649004	15.93449783	1.0
127	-45.70000076	109.4620056	-26.28000069	5.262687206	14.59274769	15.96010971	1.0
128	-45.70000076	109.4620056	-26.28000069	5.269481182	14.62077808	15.9856987	1.0
129	-45.70000076	109.4620056	-26.28000069	5.276349068	14.64874363	16.01176071	1.0
[RightArm]
126	-105.9280014	-5.248000145	-22.32099915	30.29123497	1.893143654	62.32384872	1.0
127	-105.9280014	-5.248000145	-22.32099915	30.25948334	1.885827899	62.33522797	1.0
128	-105.9280014	-5.248000145	-22.32099915	30.22677994	1.876867056	62.34638977	1.0
129	-105.9280014	-5.248000145	-22.32099915	30.19347	1.867077231	62.35669327	1.0
[RightForeArm]
126	-278.414978	0	0	-7.006908163e-06	6.67482233	9.67892538e-06	1.0
127	-278.414978	0	0	-9.09859682e-06	6.678859711	1.727411654e-05	1.0
128	-278.414978	0	0	-1.081998744e-05	6.682085991	2.464202953e-05	1.0
129	-278.414978	0	0	-1.19514425e-05	6.684332371	3.075598215e-05	1.0
[RightHand]
126	-283.2879944	0	0.0009999999311	-20.00446129	1.594031334	6.142062664	1.0
127	-283.2879944	0	0.0009999999311	-20.01472855	1.60114038	6.146057129	1.0
128	-283.2879944	0	0.0009999999311	-20.02514648	1.608254194	6.149689674	1.0
129	-283.2879944	0	0.0009999999311	-20.03542709	1.615431547	6.153217316	1.0
[RightHandPinky1]
126	-80.76699829	-4.885000229	-38.06000137	-1.507175922	-4.696118355	26.50587463	1.0
127	-80.76699829	-4.885000229	-38.06000137	-1.507175922	-4.696118355	26.50587463	1.0
128	-80.76699829	-4.885000229	-38.06000137	-1.507175922	-4.696118355	26.50587463	1.0
129	-80.76699829	-4.885000229	-38.06000137	-1.507175922	-4.696118355	26.50587463	1.0
[RightHandPinky2]
126	-36	0	0.0009999999311	-0.2127676606	-1.388874292	17.43785858	1.0
127	-36	0	0.0009999999311	-0.2127676606	-1.388874292	17.43785858	1.0
128	-36	0	0.0009999999311	-0.2127676606	-1.388874292	17.43785858	1.0
129	-36	0	0.0009999999311	-0.2127676606	-1.388874292	17.43785858	1.0
[RightHandPinky3]
126	-21.14200211	0	0	-0.1919144988	-1.32059598	16.53641129	1.0
127	-21.14200211	0	0	-0.1919144988	-1.32059598	16.53641129	1.0
128	-21.14200211	0	0	-0.1919144988	-1.32059598	16.53641129	1.0
129	-21.14200211	0	0	-0.1919144988	-1.32059598	16.53641129	1.0
[RightHandPinky4]
126	-19.75699997	0	0	0	0	0	1.0
127	-19.75699997	0	0	0	0	0	1.0
128	-19.75699997	0	0	0	0	0	1.0
129	-19.75699997	0	0	0	0	0	1.0
[RightHandRing1]
126	-91.03599548	-0.4390000105	-18.65100098	-1.045235753	-2.883111477	20.47788429	1.0
127	-91.03599548	-0.4390000105	-18.65100098	-1.045235753	-2.883111477	20.47788429	1.0
128	-91.03599548	-0.4390000105	-18.65100098	-1.045235753	-2.883111477	20.47788429	1.0
129	-91.03599548	-0.4390000105	-18.65100098	-1.045235753	-2.883111477	20.47788429	1.0
[RightHandRing2]
126	-31.54000092	0	0	-0.3066971898	-1.658752441	20.94926834	1.0
127	-31.54000092	0	0	-0.3066971898	-1.658752441	20.94926834	1.0
128	-31.54000092	0	0	-0.3066971898	-1.658752441	20.94926834	1.0
129	-31.54000092	0	0	-0.3066971898	-1.658752441	20.94926834	1.0
[RightHandRing3]
126	-29.37700081	0	0	-0.2245407403	-1.425854325	17.89771652	1.0
127	-29.37700081	0	0	-0.2245407403	-1.425854325	17.89771652	1.0
128	-29.37700081	0	0	-0.2245407403	-1.425854325	17.89771652	1.0
129	-29.37700081	0	0	-0.2245407403	-1.425854325	17.89771652	1.0
[RightHandRing4]
126	-26.47500038	0	0	0	0	0	1.0
127	-26.47500038	0	0	0	0	0	1.0
128	-26.47500038	0	0	0	0	0	1.0
129	-26.47500038	0	0	0	0	0	1.0
[RightHandMiddle1]
126	-95.32500458	0	0	-0.7017197609	-2.087752104	15.0152874	1.0
127	-95.32500458	0	0	-0.7017197609	-2.087752104	15.0152874	1.0
128	-95.32500458	0	0	-0.7017197609	-2.087752104	15.0152874	1.0
129	-95.32500458	0	0	-0.7017197609	-2.087752104	15.0152874	1.0
[RightHandMiddle2]
126	-36.98199844	0	0	-0.213228479	-1.390354872	17.43750381	1.0
127	-36.98199844	0	0	-0.213228479	-1.390354872	17.43750381	1.0
128	-36.98199844	0	0	-0.213228479	-1.390354872	17.43750381	1.0
129	-36.98199844	0	0	-0.213228479	-1.390354872	17.43750381	1.0
[RightHandMiddle3]
126	-29.50900078	0	0	-0.2384106964	-1.470119596	18.44692802	1.0
127	-29.50900078	0	0	-0.2384106964	-1.470119596	18.44692802	1.0
128	-29.50900078	0	0	-0.2384106964	-1.470119596	18.44692802	1.0
129	-29.50900078	0	0	-0.2384106964	-1.470119596	18.44692802	1.0
[RightHandMiddle4]
126	-28.3390007	0	0.0009999999311	0	0	0	1.0
127	-28.3390007	0	0.0009999999311	0	0	0	1.0
128	-28.3390007	0	0.0009999999311	0	0	0	1.0
129	-28.3390007	0	0.0009999999311	0	0	0	1.0
[RightHandIndex1]
126	-91.08300018	-5.167999744	22.60099792	0.1884763837	1.25192976	6.825599194	1.0
127	-91.08300018	-5.167999744	22.60099792	0.1884763837	1.25192976	6.825599194	1.0
128	-91.08300018	-5.167999744	22.60099792	0.1884763837	1.25192976	6.825599194	1.0
129	-91.08300018	-5.167999744	22.60099792	0.1884763837	1.25192976	6.825599194	1.0
[RightHandIndex2]
126	-36.76399994	0	0	-0.2125098109	-1.388050556	17.40767097	1.0
127	-36.76399994	0	0	-0.2125098109	-1.388050556	17.40767097	1.0
128	-36.76399994	0	0	-0.2125098109	-1.388050556	17.40767097	1.0
129	-36.76399994	0	0	-0.2125098109	-1.388050556	17.40767097	1.0
[RightHandIndex3]
126	-28.83100128	0	0	-0.04576345533	-0.650116384	8.053516388	1.0
127	-28.83100128	0	0	-0.04576345533	-0.650116384	8.053516388	1.0
128	-28.83100128	0	0	-0.04576345533	-0.650116384	8.053516388	1.0
129	-28.83100128	0	0	-0.04576345533	-0.650116384	8.053516388	1.0
[RightHandIndex4]
126	-23.92700005	0	0	0	0	0	1.0
127	-23.92700005	0	0	0	0	0	1.0
128	-23.92700005	0	0	0	0	0	1.0
129	-23.92700005	0	0	0	0	0	1.0
[RightHandThumb1]
126	-24.64799881	-15.72700024	26.82600021	-1.658462524	-0.2891407609	-4.221328735	1.0
127	-24.64799881	-15.72700024	26.82600021	-1.658462524	-0.2891407609	-4.221328735	1.0
128	-24.64799881	-15.72700024	26.82600021	-1.658462524	-0.2891407609	-4.221328735	1.0
129	-24.64799881	-15.72700024	26.82600021	-1.658462524	-0.2891407609	-4.221328735	1.0
[RightHandThumb2]
126	-32.29800034	-18.64699936	18.64699936	22.25259209	-23.88967514	-24.282444	1.0
127	-32.29800034	-18.64699936	18.64699936	22.25259209	-23.88967514	-24.282444	1.0
128	-32.29800034	-18.64699936	18.64699936	22.25259209	-23.88967514	-24.282444	1.0
129	-32.29800034	-18.64699936	18.64699936	22.25259209	-23.88967514	-24.282444	1.0
[RightHandThumb3]
126	-26.52600098	-15.31399918	15.31399918	-14.47830296	-6.743862152	-11.36570263	1.0
127	-26.52600098	-15.31399918	15.31399918	-14.47830296	-6.743862152	-11.36570263	1.0
128	-26.52600098	-15.31399918	15.31399918	-14.47830296	-6.743862152	-11.36570263	1.0
129	-26.52600098	-15.31399918	15.31399918	-14.47830296	-6.743862152	-11.36570263	1.0
[RightHandThumb4]
126	-19.54599953	-11.28499985	11.28499985	0	0	0	1.0
127	-19.54599953	-11.28499985	11.28499985	0	0	0	1.0
128	-19.54599953	-11.28499985	11.28499985	0	0	0	1.0
129	-19.54599953	-11.28499985	11.28499985	0	0	0	1.0
[LeftUpLeg]
126	82.07800293	-67.51699829	-15.99599934	-7.238121986	16.22711945	7.627696037	1.0
127	82.07800293	-67.51699829	-15.99599934	-7.222807884	16.24844933	7.640517712	1.0
128	82.07800293	-67.51699829	-15.99599934	-7.207467079	16.27033806	7.654098511	1.0
129	82.07800293	-67.51699829	-15.99599934	-7.19259882	16.292696	7.66838932	1.0
[LeftLeg]
126	0	-443.7049866	2.845999956	11.43391228	1.212020516	4.613016129	1.0
127	0	-443.7049866	2.845999956	11.45948029	1.196236849	4.606426239	1.0
128	0	-443.7049866	2.845999956	11.48729897	1.178821206	4.599564075	1.0
129	0	-443.7049866	2.845999956	11.51739979	1.160045147	4.592660904	1.0
[LeftFoot]
126	0	-444.2789917	-29.8219986	1.351447821	0.7061443925	-7.402158737	1.0
127	0	-444.2789917	-29.8219986	1.333466172	0.7056658864	-7.400887489	1.0
128	0	-444.2789917	-29.8219986	1.31428957	0.7051491737	-7.399794579	1.0
129	0	-444.2789917	-29.8219986	1.293780565	0.7045984864	-7.398899555	1.0
[LeftToeBase]
126	0	-87.28699493	107.1060028	-4.921535492	8.643176557e-07	4.808006906e-06	1.0
127	0	-87.28699493	107.1060028	-4.92485857	-6.540903996e-07	4.332658591e-06	1.0
128	0	-87.28699493	107.1060028	-4.928282261	-2.082348601e-06	3.548652785e-06	1.0
129	0	-87.28699493	107.1060028	-4.931668758	-3.413523473e-06	2.653963293e-06	1.0
[RightUpLeg]
126	-82.07800293	-67.51699829	-15.99599934	0.6960778832	-10.63328171	3.077435017	1.0
127	-82.07800293	-67.51699829	-15.99599934	0.7219927907	-10.63437653	3.076835394	1.0
128	-82.07800293	-67.51699829	-15.99599934	0.7481249571	-10.63469696	3.076920509	1.0
129	-82.07800293	-67.51699829	-15.99599934	0.7738060951	-10.6346674	3.077689648	1.0
[RightLeg]
126	0	-443.7049866	2.861999989	7.920009613	-9.262482643	-4.575053215	1.0
127	0	-443.7049866	2.861999989	7.919839382	-9.261547089	-4.579253197	1.0
128	0	-443.7049866	2.861999989	7.921873569	-9.260375977	-4.584496498	1.0
129	0	-443.7049866	2.861999989	7.926511765	-9.259010315	-4.59039402	1.0
[RightFoot]
126	0	-444.2770081	-29.83799934	-4.389346123	-1.086522937	3.233333111	1.0
127	0	-444.2770081	-29.83799934	-4.396660328	-1.07674861	3.238014698	1.0
128	0	-444.2770081	-29.83799934	-4.405105591	-1.068483591	3.243202686	1.0
129	0	-444.2770081	-29.83799934	-4.414756775	-1.061404228	3.248621464	1.0
[RightToeBase]
126	0	-87.28699493	107.1060028	-6.912796021	1.332049669e-05	3.98897896e-07	1.0
127	0	-87.28699493	107.1060028	-6.916361332	1.399274151e-05	6.994246604e-08	1.0
128	0	-87.28699493	107.1060028	-6.919997692	1.317168517e-05	-2.610169361e-07	1.0
129	0	-87.28699493	107.1060028	-6.92362833	1.129524207e-05	-5.395859262e-07	1.0
[EndOfFile]
